<svg width="42" height="42" viewBox="0 0 42 42" fill="none" xmlns="http://www.w3.org/2000/svg">
<g id="makeup 1">
<g id="Group">
<g id="Group_2">
<path id="Vector" d="M17.4505 24.2475C17.1302 23.9273 16.6109 23.9273 16.2905 24.2475C15.4344 25.1037 14.0416 25.1036 13.1856 24.2475C12.8652 23.9273 12.3459 23.9273 12.0254 24.2475C11.7051 24.5678 11.7051 25.0873 12.0254 25.4077C12.7733 26.1555 13.7557 26.5294 14.738 26.5294C15.7203 26.5294 16.7026 26.1555 17.4505 25.4077C17.7709 25.0873 17.7709 24.5679 17.4505 24.2475Z" fill="black"/>
</g>
</g>
<g id="Group_3">
<g id="Group_4">
<path id="Vector_2" d="M29.9745 24.2475C29.6541 23.9273 29.1349 23.9273 28.8145 24.2475C27.9585 25.1035 26.5657 25.1037 25.7095 24.2475C25.3891 23.9273 24.8698 23.9273 24.5493 24.2475C24.229 24.5678 24.229 25.0873 24.5493 25.4077C25.2972 26.1555 26.2796 26.5294 27.2618 26.5294C28.2443 26.5294 29.2266 26.1555 29.9745 25.4077C30.2949 25.0873 30.2949 24.5679 29.9745 24.2475Z" fill="black"/>
</g>
</g>
<g id="Group_5">
<g id="Group_6">
<path id="Vector_3" d="M38.4735 23.5156C38.4702 21.6835 37.0695 20.1718 35.2839 19.991V18.7031C35.2839 13.9114 32.9104 9.66374 29.2775 7.07369C28.65 3.01546 25.16 0 21.0106 0C16.8612 0 13.3711 3.01546 12.7435 7.07369C9.11057 9.66374 6.73717 13.9114 6.73717 18.7031V19.9894C4.94168 20.1605 3.53009 21.6763 3.52673 23.5155L3.52296 25.5933C3.52123 26.5425 3.88963 27.4353 4.56024 28.1072C5.23092 28.7789 6.12301 29.149 7.07219 29.149H7.46963C9.27152 35.3748 14.2563 40.3431 20.8026 41.9755C20.8678 41.9917 20.9344 41.9998 21.0011 41.9998C21.0676 41.9998 21.134 41.9917 21.1989 41.9756L21.2126 41.9722C22.7135 41.5984 24.1621 41.0393 25.5181 40.3103C25.9171 40.0959 26.0667 39.5985 25.8521 39.1994C25.6377 38.8004 25.1405 38.6508 24.7412 38.8654C23.5611 39.4997 22.3038 39.993 21.0014 40.333C13.5585 38.3825 8.37771 31.684 8.37771 23.9719V22.9247L8.73176 22.8445C13.4019 21.7876 17.8997 19.8792 21.9227 17.266C24.6881 20.8693 28.9754 22.9983 33.5489 22.9983H33.6432V23.9672C33.6432 26.7505 32.9491 29.5146 31.6358 31.9612C31.4215 32.3604 31.5714 32.8577 31.9705 33.0719C32.094 33.1383 32.2268 33.1696 32.3578 33.1696C32.6503 33.1696 32.9333 33.0129 33.0812 32.7371C33.6939 31.5958 34.1824 30.3911 34.5432 29.149H34.928C35.8772 29.149 36.7693 28.779 37.44 28.1072C38.1106 27.4355 38.4789 26.5427 38.4772 25.5933L38.4735 23.5156ZM7.07219 27.5083C6.56171 27.5083 6.08207 27.3093 5.72138 26.9481C5.36078 26.5869 5.16259 26.1068 5.16357 25.5964L5.16735 23.5186C5.16907 22.5837 5.84755 21.8046 6.73717 21.6442V23.9719C6.73717 25.1773 6.85267 26.36 7.07407 27.5083H7.07219ZM21.0106 1.64062C23.8282 1.64062 26.2665 3.37016 27.2604 5.87276C25.3717 4.94909 23.2508 4.42967 21.0106 4.42967C18.7703 4.42967 16.6493 4.94909 14.7607 5.87284C15.7546 3.37016 18.193 1.64062 21.0106 1.64062ZM33.6433 20.9999V21.3576H33.549C29.5195 21.3576 25.7396 19.4974 23.2822 16.3433C23.8501 15.9406 24.4078 15.524 24.9533 15.0927C25.3086 14.8117 25.3689 14.2958 25.0881 13.9404C24.807 13.5851 24.2911 13.5248 23.9358 13.8056C19.3987 17.3929 14.0191 19.9644 8.37787 21.2425V20.9999V18.7031C8.37779 11.7373 14.0448 6.07029 21.0106 6.07029C27.9763 6.07029 33.6433 11.7373 33.6433 18.7031V20.9999ZM36.2789 26.9481C35.9211 27.3065 35.4461 27.5049 34.9401 27.5079C35.1667 26.3436 35.2839 25.157 35.2839 23.9671V21.6478C36.1633 21.8165 36.8312 22.5909 36.8329 23.5185L36.8367 25.5962C36.8377 26.1068 36.6396 26.5868 36.2789 26.9481Z" fill="#F73E7B"/>
</g>
</g>
<g id="Group_7">
<g id="Group_8">
<path id="Vector_4" d="M27.268 12.0226C26.9662 11.6848 26.4476 11.6555 26.1098 11.9574L26.0985 11.9675C25.7607 12.2695 25.7314 12.788 26.0333 13.1258C26.1954 13.3072 26.4199 13.3995 26.6454 13.3995C26.8398 13.3995 27.0352 13.3307 27.1916 13.1909L27.2029 13.1808C27.5407 12.8789 27.5699 12.3604 27.268 12.0226Z" fill="black"/>
</g>
</g>
<g id="Group_9">
<g id="Group_10">
<path id="Vector_5" d="M35.722 38.4887L31.1902 33.9569L29.4474 29.4007C29.1783 28.6973 28.4457 28.2847 27.7042 28.4202C24.6115 28.985 22.1541 31.4423 21.5899 34.5325L21.5864 34.5517C21.4548 35.2722 21.8505 35.9988 22.5272 36.2791L26.999 38.1316L30.6271 41.7596C30.7873 41.9198 30.9972 41.9999 31.2072 41.9999C31.4171 41.9999 31.627 41.9198 31.7872 41.7596C32.1075 41.4393 32.1075 40.9199 31.7872 40.5995L28.6239 37.4362L30.4866 35.5735L34.5619 39.6488C34.8823 39.9691 35.4016 39.9691 35.722 39.6488C36.0424 39.3285 36.0424 38.8091 35.722 38.4887ZM27.2713 36.4685L23.2114 34.7866C23.6652 32.4019 25.5553 30.5067 27.9376 30.0455L29.5303 34.2095L27.2713 36.4685Z" fill="black"/>
</g>
</g>
<g id="Group_11">
<g id="Group_12">
<path id="Vector_6" d="M37.8329 40.5995C37.6803 40.4468 37.4687 40.3591 37.2529 40.3591C37.0372 40.3591 36.8255 40.4468 36.6721 40.5995C36.5196 40.7521 36.4326 40.9637 36.4326 41.1794C36.4326 41.3952 36.5196 41.6068 36.6721 41.7593C36.8255 41.9119 37.0372 41.9997 37.2529 41.9997C37.4687 41.9997 37.6803 41.912 37.8329 41.7593C37.9854 41.6068 38.0732 41.3952 38.0732 41.1794C38.0732 40.9637 37.9855 40.7521 37.8329 40.5995Z" fill="black"/>
</g>
</g>
</g>
</svg>
