<?xml version="1.0" standalone="no"?>
<!DOCTYPE svg PUBLIC "-//W3C//DTD SVG 20010904//EN"
 "http://www.w3.org/TR/2001/REC-SVG-20010904/DTD/svg10.dtd">
<svg version="1.0" xmlns="http://www.w3.org/2000/svg"
 width="104.000000pt" height="104.000000pt" viewBox="0 0 104.000000 104.000000"
 preserveAspectRatio="xMidYMid meet">
<metadata>
Created by potrace 1.14, written by Peter Selinger 2001-2017
</metadata>
<g transform="translate(0.000000,104.000000) scale(0.100000,-0.100000)"
fill="#000000" stroke="none">
<path d="M56 1010 c-16 -16 -33 -27 -39 -23 -6 3 -7 1 -3 -5 3 -6 2 -13 -4
-17 -12 -7 -14 -35 -2 -35 4 0 18 10 32 23 14 12 48 37 75 54 l50 33 -40 0
c-31 -1 -47 -7 -69 -30z"/>
<path d="M930 1022 c13 -9 42 -34 65 -54 33 -31 41 -34 44 -20 5 24 -75 92
-108 91 l-26 0 25 -17z"/>
<path d="M400 1011 c-130 -41 -179 -146 -131 -282 10 -30 66 -143 124 -252
l106 -198 -21 -35 c-11 -19 -16 -34 -11 -34 6 0 15 12 22 27 12 26 14 23 70
-98 l57 -124 48 0 47 0 70 165 c38 91 93 220 121 288 28 68 61 139 74 158 l23
34 -93 0 -93 0 1 -32 c1 -23 -4 -34 -16 -36 -27 -5 -15 43 41 173 l50 116 -22
20 c-12 11 -34 27 -48 35 -26 13 -27 13 -38 -30 -6 -24 -29 -83 -52 -132 -22
-49 -54 -122 -70 -162 -31 -77 -87 -192 -93 -192 -6 0 -105 181 -151 274 -28
56 -40 96 -43 137 -4 54 -2 60 26 89 17 16 39 30 49 31 10 0 26 2 36 4 10 2
31 0 47 -5 l30 -9 -15 29 c-8 16 -19 31 -23 34 -16 10 -97 15 -122 7z m392
-460 c-5 -3 -8 -14 -6 -23 1 -10 -1 -18 -6 -18 -4 0 -7 13 -6 29 0 20 5 27 14
23 8 -2 9 -8 4 -11z m-28 -82 c-13 -15 -14 -19 -3 -19 11 0 12 -2 1 -9 -8 -4
-13 -10 -12 -12 1 -2 -4 -24 -11 -49 -6 -25 -13 -58 -14 -75 -2 -16 -12 -57
-23 -90 l-21 -60 -20 48 c-35 80 -35 88 2 168 29 63 67 117 67 95 0 -4 9 -2
20 4 11 6 17 16 14 22 -5 7 -2 8 5 4 9 -6 8 -13 -5 -27z"/>
<path d="M32 648 c29 -22 136 -259 249 -550 19 -48 38 -88 42 -88 4 0 16 14
25 31 9 17 25 41 35 53 16 20 17 20 10 1 -3 -11 -13 -30 -21 -43 -8 -12 -13
-25 -10 -27 2 -3 24 32 49 77 51 96 61 121 24 61 -24 -39 -45 -49 -45 -22 0 6
-28 78 -61 162 -34 84 -74 188 -89 232 l-28 80 20 21 20 22 -119 1 c-98 1
-115 0 -101 -11z"/>
<path d="M795 621 c-3 -5 -2 -12 3 -15 5 -3 9 1 9 9 0 17 -3 19 -12 6z"/>
</g>
</svg>
